HIERARCHY
ROOT Hips
{
 OFFSET 0.000000 0.000000 0.000000
 CHANNELS 6 Xposition Yposition Zposition Yrotation Xrotation Zrotation
 JOINT Chest
 {
  OFFSET 0.000000 9.585900 0.002600
  CHANNELS 3 Yrotation Xrotation Zrotation
  JOINT Chest2
  {
   OFFSET 0.000000 9.601200 -0.005300
   CHANNELS 3 Yrotation Xrotation Zrotation
   JOINT Chest3
   {
    OFFSET 0.000000 9.561800 0.000000
    CHANNELS 3 Yrotation Xrotation Zrotation
    JOINT Chest4
    {
     OFFSET 0.000000 9.552100 0.000000
     CHANNELS 3 Yrotation Xrotation Zrotation
     JOINT Neck
     {
      OFFSET 0.000000 14.453000 0.000000
      CHANNELS 3 Yrotation Xrotation Zrotation
      JOINT Head
      {
       OFFSET 0.000000 8.936500 -0.011300
       CHANNELS 3 Yrotation Xrotation Zrotation
       End Site
       {
        OFFSET 0.000000 17.073600 -0.006000
       }
      }
     }
     JOINT RightCollar
     {
      OFFSET -2.921100 9.558500 0.000000
      CHANNELS 3 Yrotation Xrotation Zrotation
      JOINT RightShoulder
      {
       OFFSET -13.519700 0.000000 0.000000
       CHANNELS 3 Yrotation Xrotation Zrotation
       JOINT RightElbow
       {
        OFFSET 0.000000 -29.696600 0.000000
        CHANNELS 3 Yrotation Xrotation Zrotation
        JOINT RightWrist
        {
         OFFSET 0.000000 -24.004700 0.000000
         CHANNELS 3 Yrotation Xrotation Zrotation
         End Site
         {
          OFFSET 0.000000 -17.728500 0.000000
         }
        }
       }
      }
     }
     JOINT LeftCollar
     {
      OFFSET 2.921100 9.558500 0.000000
      CHANNELS 3 Yrotation Xrotation Zrotation
      JOINT LeftShoulder
      {
       OFFSET 13.519700 0.000000 0.000000
       CHANNELS 3 Yrotation Xrotation Zrotation
       JOINT LeftElbow
       {
        OFFSET 0.000000 -29.696600 0.000000
        CHANNELS 3 Yrotation Xrotation Zrotation
        JOINT LeftWrist
        {
         OFFSET 0.000000 -24.004700 0.000000
         CHANNELS 3 Yrotation Xrotation Zrotation
         End Site
         {
          OFFSET 0.000000 -17.728500 0.000000
         }
        }
       }
      }
     }
    }
   }
  }
 }
 JOINT RightHip
 {
  OFFSET -7.771700 -0.012900 -0.001300
  CHANNELS 3 Yrotation Xrotation Zrotation
  JOINT RightKnee
  {
   OFFSET 0.000000 -40.869800 0.001200
   CHANNELS 3 Yrotation Xrotation Zrotation
   JOINT RightAnkle
   {
    OFFSET 0.000000 -39.717900 0.002100
    CHANNELS 3 Yrotation Xrotation Zrotation
    JOINT RightToe
    {
     OFFSET 0.000000 -4.965400 11.033500
     CHANNELS 3 Yrotation Xrotation Zrotation
     End Site
     {
      OFFSET 0.000000 -1.423100 5.872300
     }
    }
   }
  }
 }
 JOINT LeftHip
 {
  OFFSET 7.771700 -0.012900 -0.001300
  CHANNELS 3 Yrotation Xrotation Zrotation
  JOINT LeftKnee
  {
   OFFSET 0.000000 -40.869800 0.001200
   CHANNELS 3 Yrotation Xrotation Zrotation
   JOINT LeftAnkle
   {
    OFFSET 0.000000 -39.717900 0.002100
    CHANNELS 3 Yrotation Xrotation Zrotation
    JOINT LeftToe
    {
     OFFSET 0.000000 -4.965400 11.033500
     CHANNELS 3 Yrotation Xrotation Zrotation
     End Site
     {
      OFFSET 0.000000 -1.423100 5.872300
     }
    }
   }
  }
 }
}
MOTION
Frames: 6
Frame Time: 0.008333
10.726837 48.854942 49.398088 172.671598 -34.890883 -7.022320 6.861492 19.439974 6.478593 0.787501 2.639313 0.718004 1.256040 4.242938 1.107064 5.699341 16.700874 5.219842 -2.142100 16.701755 1.657417 -4.541607 -4.679004 3.811580 -2.431609 -2.717366 -4.634764 1.512651 -4.148284 2.791360 60.292507 -80.627815 -72.492556 1.341245 -5.491685 6.671134 -8.506973 -1.118313 0.750378 3.173345 -3.148022 -2.059536 -102.427378 -73.577895 110.408305 11.937656 -7.148861 -4.319569 4.346247 -45.927776 9.823362 -97.542249 86.164299 -85.855499 -4.547320 -10.177819 -1.655171 0.105090 0.667655 0.111749 -9.367340 -49.912948 15.258828 -160.470052 80.801944 -166.542643 1.404512 -16.978166 6.750180 -0.016362 -0.048434 0.035588
10.738263 48.900865 49.408253 172.697449 -34.855142 -7.085429 6.892513 19.440090 6.598510 0.772295 2.614484 0.690075 1.250941 4.248032 1.110421 5.722248 16.689909 5.244498 -2.143230 16.708878 1.612560 -4.527943 -4.668159 3.728485 -2.470908 -2.722622 -4.668822 1.506745 -4.066406 2.871110 60.372789 -80.629003 -72.606010 1.334813 -5.673565 6.827705 -8.538155 -1.153966 0.716513 3.233991 -3.132340 -1.998917 -102.680934 -73.789890 110.536922 11.906379 -7.103547 -4.397225 4.170671 -46.008697 9.874653 -98.694305 86.038536 -86.969824 -4.262035 -10.159080 -1.787759 0.110911 0.541425 0.114299 -9.447017 -49.912584 15.334383 -160.352898 80.839256 -166.419643 1.431905 -16.942233 6.762453 -0.032129 -0.074586 0.006223
10.742373 48.962602 49.413090 172.730814 -34.830901 -7.110999 6.895040 19.429165 6.644291 0.773911 2.613319 0.691973 1.240862 4.250598 1.112186 5.713927 16.679041 5.233772 -2.112710 16.719398 1.592963 -4.525748 -4.654324 3.665312 -2.485100 -2.717968 -4.673042 1.504166 -3.982023 2.951112 60.625780 -80.639096 -72.893574 1.299330 -5.823496 7.051442 -8.541336 -1.178189 0.709658 3.284484 -3.134400 -1.941328 -102.920859 -73.997807 110.658291 11.920816 -7.102218 -4.438609 4.114428 -46.100789 9.821276 -100.091941 85.856013 -88.277462 -4.085302 -10.131628 -1.814412 0.059518 0.434637 0.054428 -9.474161 -49.894982 15.337526 -160.054155 80.881714 -166.122412 1.467826 -16.900612 6.784450 -0.027006 -0.109073 -0.021103
10.752510 49.036757 49.417356 172.784516 -34.797565 -7.188305 6.904727 19.405308 6.736187 0.762927 2.608193 0.684573 1.246023 4.250762 1.124654 5.757864 16.670307 5.259466 -2.177298 16.720348 1.553951 -4.495984 -4.628542 3.591286 -2.545071 -2.712053 -4.694570 1.482758 -3.945482 2.982333 60.525590 -80.687198 -72.825332 1.256050 -5.927456 7.367415 -8.540326 -1.290454 0.698256 3.261009 -3.074167 -1.899626 -103.120447 -74.188581 110.753777 11.994795 -7.162311 -4.441578 4.052918 -46.203591 9.770542 -101.495435 85.703095 -89.573622 -3.814273 -10.139288 -1.828625 0.032165 0.390935 -0.005922 -9.580854 -49.869504 15.408553 -159.679215 80.925135 -165.753368 1.537345 -16.844247 6.805363 -0.048540 -0.173860 -0.047435
10.755892 49.117202 49.417710 172.852044 -34.757516 -7.231663 6.898239 19.385050 6.789325 0.766367 2.606408 0.686629 1.288248 4.254455 1.153941 5.757428 16.652392 5.262910 -2.197463 16.734243 1.512777 -4.534021 -4.612133 3.542883 -2.570825 -2.720358 -4.689958 1.406481 -3.892031 2.989325 60.444897 -80.749095 -72.779041 1.225749 -5.969656 7.799797 -8.575448 -1.386965 0.677222 3.240674 -3.053685 -1.851267 -103.317645 -74.386698 110.861865 12.115647 -7.295347 -4.409418 4.022928 -46.294648 9.663904 -102.736753 85.593943 -90.696188 -3.713450 -10.166803 -1.820354 -0.007599 0.371598 -0.068280 -9.704857 -49.846275 15.447097 -159.209802 80.967907 -165.326872 1.622625 -16.783509 6.828476 -0.059229 -0.228435 -0.080089
10.762717 49.199842 49.415290 172.922673 -34.715673 -7.292626 6.904510 19.366917 6.864689 0.784144 2.608296 0.698316 1.296858 4.250754 1.158751 5.769739 16.636438 5.272111 -2.202167 16.750127 1.478165 -4.588817 -4.595752 3.498175 -2.622972 -2.746572 -4.695087 1.304711 -3.706930 3.123484 61.413011 -80.778378 -73.740778 1.223134 -5.948324 8.364875 -8.615044 -1.475335 0.654523 3.211408 -3.065993 -1.802393 -103.530708 -74.601764 111.011673 12.299251 -7.498311 -4.367029 3.928732 -46.361873 9.622473 -103.695491 85.527596 -91.549805 -3.774078 -10.252890 -1.801226 -0.087315 0.407819 -0.133509 -9.840483 -49.832073 15.517005 -158.162238 80.967588 -164.332879 1.812863 -16.687427 6.852231 -0.076243 -0.328359 -0.103766
